<svg width="48" height="48" viewBox="0 0 48 48" fill="none" xmlns="http://www.w3.org/2000/svg">
  <rect width="48" height="48" rx="12" fill="#0F3D3E"/>
  <path d="M15.2 28.6C15.2 31 17.1 32.6 20.2 32.6C23.2 32.6 25.2 31.1 25.2 28.9C25.2 24.3 17.2 25.7 17.2 22.7C17.2 21.6 18.2 20.9 19.8 20.9C21.5 20.9 22.6 21.6 22.9 22.9L25.8 22C25.2 19.4 22.8 17.8 19.8 17.8C16.7 17.8 14.6 19.6 14.6 22.2C14.6 26.6 22.6 25.2 22.6 28.4C22.6 29.4 21.6 30 20.2 30C18.4 30 17.2 29.2 17 27.7L15.2 28.6Z" fill="#F5F1E8"/>
  <path d="M28.8 17.6H33.4C36.1 17.6 37.8 19.1 37.8 21.6C37.8 24.1 36.1 25.6 33.4 25.6H30.6V32.4H28.8V17.6ZM30.6 19.2V24.1H33.4C35 24.1 36 23.2 36 21.6C36 20 35 19.2 33.4 19.2H30.6Z" fill="#F5F1E8"/>
  <path d="M26.8 27.1H28.4L27.5 29.6H29.2L30.1 27.1H32.7V25.7H30.6L31.9 22.2H30.3L29 25.7H27.4L28.7 22.2H27.1L25.8 25.7H23.4V27.1H25.3L24.4 29.6H26.1L27 27.1H26.8Z" fill="#F5F1E8"/>
</svg>
